# xmcd
# 
# Track frame offsets:
#     150
#     15720
#     43458
#     65868
#     98395
#     165823
#     206945
#     243338
#     271055
# 
# Disc length: 4084
# 
# Revision: 19
# Processed by: cddbd v1.5.2PL0 Copyright (c) Steve Scherf et al.
# Submitted via: fre:ac v1.0.31
# 
DISCID=760ff209
DTITLE=Various Artist - Pomp and Pipes! [HDCD]
DYEAR=1994
DGENRE=Classical
TTITLE0=Sigfried Karg-Elert - Praise The Lord With Drums And Cymbals
TTITLE1=Alfred Reed - Allelujah! Laudamus Te
TTITLE2=Eugene Gigout - Grand Chorus In Dialogue
TTITLE3=Arthur Wills - The Vikings
TTITLE4=Percy Grainger - The Power Of Rome And The Christian Heart
TTITLE5=Marcel Dupré - Heroic Poem
TTITLE6=Ron Nelson - Pebble Beach Sojourn
TTITLE7=Charles-Marie Widor - Lord, Save Thy People
TTITLE8=Jaromir Weinberger - Polka And Fugue from "Schwanda The Bagpiper"
EXTD=
EXTT0=
EXTT1=
EXTT2=
EXTT3=
EXTT4=
EXTT5=
EXTT6=
EXTT7=
EXTT8=
PLAYORDER=
